<svg width="20" height="20" viewBox="0 0 20 20" fill="none" xmlns="http://www.w3.org/2000/svg">
<path d="M16.7772 6.32341C16.4478 6.04106 15.9772 6.04106 15.6948 6.37047C15.4125 6.69988 15.4125 7.17047 15.7419 7.45282C16.2125 7.87635 16.4948 8.53517 16.4948 9.19399V14.041C16.4948 15.3587 15.4595 16.394 14.1889 16.394H9.29482C8.68306 16.394 8.11835 16.1587 7.69482 15.7352C7.36541 15.4528 6.89482 15.4528 6.61247 15.7822C6.33012 16.1116 6.33012 16.5822 6.65953 16.8646C7.36541 17.5705 8.30659 17.9469 9.34188 17.9469H14.1419C16.2595 17.9469 18.0007 16.2057 18.0007 14.041V9.19399C18.0007 8.11164 17.5301 7.07635 16.7772 6.32341Z" fill="#7C7D84"/>
<path d="M10.7059 1.99219H5.90588C3.74117 1.99219 2 3.73336 2 5.89806V10.7451C2 12.9098 3.74117 14.6981 5.90588 14.6981H10.7059C12.8235 14.6981 14.5647 12.9569 14.5647 10.7922V5.89806C14.5647 3.73336 12.8235 1.99219 10.7059 1.99219ZM11.0353 6.46277C11.0353 6.79218 10.7529 7.07453 10.4235 7.07453H9.05881C9.05881 7.07453 9.01175 7.07453 9.01175 7.12159V10.6039C9.01175 10.9804 8.68234 11.3098 8.30587 11.3098C7.9294 11.3098 7.59999 10.9804 7.59999 10.6039V7.12159C7.59999 7.12159 7.59999 7.07453 7.55293 7.07453H6.18823C5.85882 7.07453 5.57647 6.79218 5.57647 6.46277C5.57647 6.13336 5.85882 5.85101 6.18823 5.85101H10.4235C10.7529 5.80395 11.0353 6.0863 11.0353 6.46277Z" fill="#7C7D84"/>
</svg>
