<svg width="20" height="20" viewBox="0 0 20 20" fill="none" xmlns="http://www.w3.org/2000/svg">
<rect x="2" y="3" width="15" height="14" rx="4" fill="#505CFF"/>
<path d="M4.19922 5.9998C4.19922 6.15739 4.23026 6.31343 4.29056 6.45902C4.35087 6.60462 4.43926 6.7369 4.55069 6.84833C4.66212 6.95976 4.79441 7.04815 4.94 7.10846C5.08559 7.16877 5.24163 7.19981 5.39922 7.19981C5.55681 7.19981 5.71285 7.16877 5.85844 7.10846C6.00403 7.04815 6.13632 6.95976 6.24775 6.84833C6.35918 6.7369 6.44757 6.60462 6.50787 6.45902C6.56818 6.31343 6.59922 6.15739 6.59922 5.9998C6.59922 5.68155 6.47279 5.37632 6.24775 5.15128C6.0227 4.92623 5.71748 4.7998 5.39922 4.7998C5.08096 4.7998 4.77573 4.92623 4.55069 5.15128C4.32565 5.37632 4.19922 5.68155 4.19922 5.9998Z" fill="white"/>
<path d="M4.63318 14.9996C4.52233 14.9997 4.41341 14.9662 4.31733 14.9027C4.22124 14.8391 4.14136 14.7476 4.08567 14.6374C4.02998 14.5272 4.00044 14.4021 4 14.2746C3.99957 14.1472 4.02825 14.0218 4.08318 13.9111L5.52544 11.0126C5.58094 10.9012 5.66103 10.8087 5.7576 10.7443C5.85418 10.68 5.96382 10.6461 6.07544 10.6461C6.18706 10.6461 6.2967 10.68 6.39328 10.7443C6.48985 10.8087 6.56994 10.9012 6.62544 11.0126L8.18022 14.1373L11.0977 9.31254C11.1561 9.21607 11.2339 9.13726 11.3245 9.08284C11.4151 9.02842 11.5158 9 11.618 9C11.7202 9 11.8209 9.02842 11.9115 9.08284C12.0021 9.13726 12.0799 9.21607 12.1383 9.31254L14.8865 13.8576C14.9526 13.9667 14.9914 14.0946 14.9987 14.2274C15.006 14.3601 14.9815 14.4927 14.9278 14.6105C14.8741 14.7283 14.7934 14.8269 14.6943 14.8956C14.5952 14.9643 14.4817 15.0004 14.366 15H4.63318V14.9996Z" fill="white"/>
</svg>
