<svg width="20" height="20" viewBox="0 0 20 20" fill="none" xmlns="http://www.w3.org/2000/svg">
<path d="M8.70183 6.1038C9.62917 4.44066 10.0935 3.6084 10.7866 3.6084C11.4797 3.6084 11.9427 4.44066 12.87 6.10242L13.1098 6.53371C13.373 7.00633 13.5052 7.24195 13.7105 7.39904C13.9159 7.55474 14.1708 7.61261 14.6834 7.72836L15.1491 7.83308C16.95 8.24094 17.8498 8.44487 18.0634 9.13383C18.2783 9.82278 17.6638 10.5393 16.4374 11.9765L16.1205 12.3457C15.7705 12.7536 15.5969 12.9589 15.517 13.2111C15.4398 13.4632 15.466 13.7347 15.517 14.279L15.5666 14.775C15.7526 16.6903 15.8449 17.648 15.2841 18.0737C14.7233 18.4981 13.88 18.1109 12.1948 17.3352L11.758 17.134C11.2799 16.9135 11.0402 16.8033 10.7866 16.8033C10.5317 16.8033 10.2919 16.9135 9.81243 17.134L9.37701 17.3352C7.69182 18.1096 6.84854 18.4995 6.28773 18.0737C5.72692 17.6466 5.81924 16.6903 6.00526 14.775L6.05348 14.279C6.10584 13.7347 6.1334 13.4632 6.05348 13.2111C5.97632 12.9589 5.80133 12.7564 5.45271 12.3471L5.13579 11.9751C3.9067 10.5407 3.29215 9.82141 3.5071 9.13245C3.72205 8.44349 4.62321 8.24094 6.42276 7.83308L6.8885 7.72836C7.40108 7.61261 7.656 7.55474 7.8613 7.39766C8.06799 7.24333 8.19889 7.00633 8.46207 6.53371L8.70183 6.1038Z" fill="#7C7D84"/>
<path d="M4.21213 1.45593C4.23968 1.36499 4.39952 1.36361 4.4257 1.45593C4.54696 1.86931 4.77018 2.48385 5.10915 2.82007C5.44811 3.15628 6.06404 3.37674 6.47879 3.49524C6.57111 3.52004 6.57111 3.68126 6.48017 3.70882C6.06542 3.8287 5.45087 4.0533 5.11466 4.39089C4.77845 4.72985 4.55936 5.34578 4.44086 5.76053C4.41468 5.85285 4.25346 5.85285 4.22728 5.76191C4.10603 5.34716 3.8828 4.73261 3.54384 4.3964C3.20487 4.06019 2.59032 3.8411 2.17419 3.7226C2.08325 3.69642 2.08187 3.5352 2.17419 3.50902C2.58757 3.38777 3.20212 3.16454 3.53833 2.82558C3.87454 2.48661 4.095 1.87206 4.2135 1.45593" fill="#7C7D84"/>
<path d="M16.3824 2.10059C16.7393 2.10059 17.0287 2.38995 17.0287 2.74683V2.96178H17.2436C17.415 2.96178 17.5794 3.02987 17.7006 3.15106C17.8218 3.27225 17.8899 3.43663 17.8899 3.60802C17.8899 3.77942 17.8218 3.94379 17.7006 4.06498C17.5794 4.18618 17.415 4.25426 17.2436 4.25426H17.0287V4.46922C17.0287 4.64061 16.9606 4.80499 16.8394 4.92618C16.7182 5.04737 16.5538 5.11546 16.3824 5.11546C16.211 5.11546 16.0467 5.04737 15.9255 4.92618C15.8043 4.80499 15.7362 4.64061 15.7362 4.46922V4.25426H15.5212C15.4364 4.25426 15.3523 4.23755 15.2739 4.20507C15.1955 4.17259 15.1243 4.12499 15.0643 4.06498C15.0043 4.00497 14.9567 3.93373 14.9242 3.85533C14.8917 3.77692 14.875 3.69289 14.875 3.60802C14.875 3.52316 14.8917 3.43912 14.9242 3.36072C14.9567 3.28231 15.0043 3.21107 15.0643 3.15106C15.1243 3.09105 15.1955 3.04345 15.2739 3.01097C15.3523 2.9785 15.4364 2.96178 15.5212 2.96178H15.7362V2.74683C15.7362 2.38995 16.0256 2.10059 16.3824 2.10059Z" fill="#7C7D84"/>
</svg>
