<svg width="16" height="14" viewBox="0 0 16 14" fill="none" xmlns="http://www.w3.org/2000/svg">
<path d="M6.59812 0H5.76572C4.61039 0 3.66998 8.9411e-08 2.92813 0.0992773C2.15355 0.204009 1.48807 0.427656 0.957862 0.958953C0.427656 1.48916 0.202918 2.15464 0.0992773 2.92813C2.43848e-08 3.66999 0 4.61039 0 5.76572V7.32579C0 8.48111 2.43848e-08 9.42043 0.0992773 10.1623C0.202918 10.9369 0.427656 11.6023 0.957862 12.1326C1.48916 12.6628 2.15464 12.8875 2.92813 12.9922C3.66889 13.0915 4.60821 13.0915 5.76353 13.0915H6.6003C7.75453 13.0915 8.69494 13.0915 9.4357 12.9922C10.2103 12.8875 10.8758 12.6628 11.4049 12.1326C11.9187 11.6198 12.1456 10.9794 12.2536 10.2365C12.5875 10.4983 12.8886 10.7198 13.1602 10.8834C13.6697 11.1911 14.3156 11.4496 14.9778 11.1212C15.6302 10.7972 15.832 10.135 15.916 9.54043C16 8.94368 16 8.14073 16 7.17524V5.91518C16 4.94968 16 4.14783 15.916 3.54998C15.832 2.95541 15.6302 2.2932 14.9778 1.96918C14.3156 1.64189 13.6697 1.89936 13.1602 2.20701C12.8459 2.40455 12.5435 2.62058 12.2547 2.85395C12.2504 2.82886 12.2569 2.87795 12.2547 2.85395C12.15 2.07937 11.9362 1.48916 11.4049 0.958953C10.8747 0.427656 10.2092 0.204009 9.4357 0.0992773C8.69385 8.9411e-08 7.75344 0 6.59812 0ZM12.3595 4.64094C13.0566 4.06709 13.5377 3.67871 13.913 3.45179C14.1094 3.33179 14.2294 3.28924 14.2948 3.27724C14.2948 3.27724 14.3494 3.28924 14.3647 3.32088C14.3996 3.38852 14.4421 3.51725 14.4759 3.75399C14.5436 4.23619 14.5458 4.93659 14.5458 5.97627V7.11414C14.5458 8.15383 14.5436 8.85422 14.4759 9.33642C14.4432 9.57316 14.3996 9.7019 14.3647 9.77063C14.3494 9.80117 14.3319 9.81645 14.3308 9.81754C14.3308 9.81754 14.2839 9.81645 14.2937 9.81427C14.3046 9.81099 14.309 9.81645 14.2937 9.81427C14.1579 9.77709 14.0289 9.71814 13.9119 9.63971C13.5377 9.4117 13.0566 9.02332 12.3595 8.44948C12.3638 8.10037 12.3638 7.72726 12.3638 7.32797V5.76354C12.3638 5.25842 12.3682 5.06532 12.3595 4.64094Z" fill="#7C7D84"/>
</svg>
