<svg width="20" height="20" viewBox="0 0 20 20" fill="none" xmlns="http://www.w3.org/2000/svg">
<path d="M2.73902 7.03711C1.75233 6.61043 1.75499 5.91602 2.73902 5.49041L8.21222 3.12021C9.19945 2.69247 10.8032 2.69354 11.7878 3.12021L17.261 5.48934C18.2477 5.91602 18.245 6.61043 17.261 7.03658L11.7878 9.40624C10.8006 9.83291 9.19678 9.83185 8.21222 9.40624L2.73902 7.03711ZM3.10916 9.06649L8.21222 11.2751C9.19678 11.7012 10.8006 11.7018 11.7878 11.2751L16.8908 9.06649L17.261 9.22703C18.2477 9.65371 18.245 10.3481 17.261 10.7743L11.7878 13.1434C10.8006 13.5701 9.19678 13.5701 8.21222 13.1434L2.73902 10.7743C1.75233 10.3476 1.75499 9.65317 2.73902 9.22756L3.10916 9.06649ZM3.10916 12.8037L8.21222 15.0117C9.19678 15.4384 10.8006 15.4389 11.7878 15.0117L16.8908 12.8037L17.261 12.9642C18.2477 13.3909 18.245 14.0853 17.261 14.5109L11.7878 16.8806C10.8006 17.3072 9.19678 17.3067 8.21222 16.8806L2.73902 14.5114C1.75233 14.0848 1.75499 13.3903 2.73902 12.9647L3.10916 12.8037Z" fill="#7C7D84"/>
</svg>
