<svg width="20" height="20" viewBox="0 0 20 20" fill="none" xmlns="http://www.w3.org/2000/svg">
<path d="M15.3125 2.42188C16.1579 2.42188 16.9686 2.7577 17.5664 3.35547C18.1642 3.95324 18.5 4.764 18.5 5.60938V15.3848C18.4999 16.23 18.1641 17.041 17.5664 17.6387C16.9687 18.2363 16.1578 18.5723 15.3125 18.5723H4.6875C3.84221 18.5723 3.03135 18.2363 2.43359 17.6387C1.83591 17.041 1.5001 16.23 1.5 15.3848V5.60938C1.5 4.764 1.83582 3.95324 2.43359 3.35547C3.03137 2.7577 3.84212 2.42188 4.6875 2.42188H15.3125ZM5.14746 8.70801C5.04516 8.71347 4.94766 8.75494 4.87402 8.82617L2.77539 10.7734V15.3848C2.77662 15.8914 2.97779 16.3771 3.33594 16.7354C3.69436 17.0938 4.18062 17.2958 4.6875 17.2969H15.3125C15.8194 17.2958 16.3056 17.0938 16.6641 16.7354C17.0222 16.3771 17.2234 15.8914 17.2246 15.3848V14.0029L14.3604 11.4531C14.2815 11.3791 14.1775 11.3379 14.0693 11.3379C13.9612 11.3379 13.8571 11.379 13.7783 11.4531L12.6094 12.6221C12.3113 12.9142 11.9159 13.0869 11.499 13.1064C11.0823 13.126 10.6727 12.9913 10.3486 12.7285L5.43164 8.79688C5.35087 8.73393 5.24972 8.70258 5.14746 8.70801ZM4.6875 3.69727C4.18062 3.69839 3.69436 3.89939 3.33594 4.25781C2.97752 4.61623 2.77651 5.10249 2.77539 5.60938V9.03516L4.00781 7.8916C4.30592 7.61408 4.6936 7.4522 5.10059 7.43652C5.50768 7.42093 5.90704 7.55269 6.22559 7.80664L11.1348 11.7422C11.2161 11.8075 11.3187 11.8404 11.4229 11.835C11.5271 11.8295 11.6261 11.7854 11.7002 11.7119L12.877 10.5605C13.1842 10.2541 13.5974 10.0773 14.0312 10.0654C14.465 10.0536 14.8874 10.2079 15.2109 10.4971L17.2246 12.2822V5.60938C17.2235 5.10249 17.0225 4.61623 16.6641 4.25781C16.3056 3.89939 15.8194 3.69839 15.3125 3.69727H4.6875ZM13.8252 5.04688C14.3669 5.048 14.8864 5.26355 15.2695 5.64648C15.6526 6.02954 15.8689 6.54911 15.8701 7.09082C15.8701 7.49503 15.7499 7.89045 15.5254 8.22656C15.3008 8.56274 14.981 8.82477 14.6074 8.97949C14.2339 9.13414 13.8232 9.17456 13.4268 9.0957C13.0303 9.01684 12.6657 8.8229 12.3799 8.53711C12.094 8.25127 11.8992 7.88669 11.8203 7.49023C11.7414 7.09369 11.7818 6.68213 11.9365 6.30859C12.0912 5.93521 12.3535 5.6162 12.6895 5.3916C13.0255 5.16703 13.421 5.04694 13.8252 5.04688ZM13.6436 6.17871C13.4632 6.21468 13.2971 6.30256 13.167 6.43262C13.0369 6.56268 12.9491 6.7288 12.9131 6.90918C12.8772 7.08973 12.8954 7.27719 12.9658 7.44727C13.0363 7.61732 13.1555 7.76297 13.3086 7.86523C13.4615 7.96735 13.6413 8.02142 13.8252 8.02148C14.072 8.02148 14.3088 7.92357 14.4834 7.74902C14.6579 7.57447 14.7559 7.33767 14.7559 7.09082C14.7558 6.90693 14.7017 6.72715 14.5996 6.57422C14.4973 6.42117 14.3517 6.30189 14.1816 6.23145C14.0116 6.161 13.8241 6.1428 13.6436 6.17871Z" fill="white"/>
<path d="M17.5664 3.35547L17.6666 3.2553V3.2553L17.5664 3.35547ZM18.5 15.3848L18.6417 15.3848V15.3848H18.5ZM17.5664 17.6387L17.6666 17.7389L17.6666 17.7388L17.5664 17.6387ZM4.6875 18.5723V18.7139V18.7139V18.5723ZM2.43359 17.6387L2.33342 17.7388L2.33343 17.7389L2.43359 17.6387ZM1.5 15.3848H1.35833V15.3848L1.5 15.3848ZM1.5 5.60938H1.35833H1.5ZM2.43359 3.35547L2.33342 3.2553V3.2553L2.43359 3.35547ZM4.6875 2.42188V2.28021V2.28021V2.42188ZM5.14746 8.70801L5.13994 8.56654L5.1399 8.56654L5.14746 8.70801ZM4.87402 8.82617L4.9704 8.93004L4.97252 8.92799L4.87402 8.82617ZM2.77539 10.7734L2.67903 10.6696L2.63372 10.7116V10.7734H2.77539ZM2.77539 15.3848H2.63372L2.63372 15.3851L2.77539 15.3848ZM3.33594 16.7354L3.23574 16.8355L3.23576 16.8355L3.33594 16.7354ZM4.6875 17.2969L4.68719 17.4385H4.6875V17.2969ZM15.3125 17.2969V17.4385L15.3128 17.4385L15.3125 17.2969ZM16.6641 16.7354L16.7642 16.8355L16.7643 16.8355L16.6641 16.7354ZM17.2246 15.3848L17.3663 15.3851V15.3848H17.2246ZM17.2246 14.0029H17.3663V13.9394L17.3188 13.8971L17.2246 14.0029ZM14.3604 11.4531L14.2633 11.5564L14.2662 11.5589L14.3604 11.4531ZM14.0693 11.3379V11.1962H14.0693L14.0693 11.3379ZM13.7783 11.4531L13.6812 11.3499L13.6781 11.353L13.7783 11.4531ZM12.6094 12.6221L12.7085 12.7233L12.7095 12.7222L12.6094 12.6221ZM11.499 13.1064L11.5057 13.248L11.5057 13.248L11.499 13.1064ZM10.3486 12.7285L10.4379 12.6185L10.4371 12.6179L10.3486 12.7285ZM5.43164 8.79688L5.52012 8.68622L5.51873 8.68514L5.43164 8.79688ZM4.6875 3.69727V3.5556L4.68719 3.5556L4.6875 3.69727ZM3.33594 4.25781L3.23576 4.15764V4.15764L3.33594 4.25781ZM2.77539 5.60938L2.63372 5.60906V5.60938H2.77539ZM2.77539 9.03516H2.63372V9.35987L2.87175 9.139L2.77539 9.03516ZM4.00781 7.8916L4.10417 7.99545L4.10434 7.99529L4.00781 7.8916ZM5.10059 7.43652L5.09516 7.29496L5.09513 7.29496L5.10059 7.43652ZM6.22559 7.80664L6.3142 7.69611L6.3139 7.69587L6.22559 7.80664ZM11.1348 11.7422L11.2234 11.6317L11.2234 11.6317L11.1348 11.7422ZM11.4229 11.835L11.4302 11.9764L11.4303 11.9764L11.4229 11.835ZM11.7002 11.7119L11.6011 11.6107L11.6004 11.6113L11.7002 11.7119ZM12.877 10.5605L12.976 10.6618L12.977 10.6609L12.877 10.5605ZM14.0312 10.0654L14.0274 9.92382H14.0274L14.0312 10.0654ZM15.2109 10.4971L15.1165 10.6027L15.117 10.6031L15.2109 10.4971ZM17.2246 12.2822L17.1306 12.3882L17.3663 12.5971V12.2822H17.2246ZM17.2246 5.60938H17.3663L17.3663 5.60906L17.2246 5.60938ZM16.6641 4.25781L16.7642 4.15764L16.6641 4.25781ZM15.3125 3.69727L15.3128 3.5556H15.3125V3.69727ZM13.8252 5.04688L13.8255 4.90521H13.8252L13.8252 5.04688ZM15.2695 5.64648L15.3697 5.54631L15.3697 5.54629L15.2695 5.64648ZM15.8701 7.09082H16.0118L16.0118 7.09051L15.8701 7.09082ZM15.5254 8.22656L15.6432 8.30527L15.6432 8.30525L15.5254 8.22656ZM14.6074 8.97949L14.6616 9.11038L14.6616 9.11037L14.6074 8.97949ZM13.4268 9.0957L13.3991 9.23465H13.3991L13.4268 9.0957ZM12.3799 8.53711L12.2797 8.63728L12.2797 8.6373L12.3799 8.53711ZM11.8203 7.49023L11.6814 7.51787L11.6814 7.51789L11.8203 7.49023ZM11.9365 6.30859L11.8056 6.25437L11.8056 6.25438L11.9365 6.30859ZM12.6895 5.3916L12.6107 5.27381L12.6107 5.27382L12.6895 5.3916ZM13.6436 6.17871L13.6159 6.03977L13.6159 6.03978L13.6436 6.17871ZM13.167 6.43262L13.0668 6.33244L13.0668 6.33244L13.167 6.43262ZM12.9131 6.90918L12.7742 6.88148L12.7741 6.88154L12.9131 6.90918ZM12.9658 7.44727L12.8349 7.50148L12.8349 7.50149L12.9658 7.44727ZM13.3086 7.86523L13.2299 7.98303L13.2299 7.98305L13.3086 7.86523ZM13.8252 8.02148L13.8251 8.16315H13.8252V8.02148ZM14.4834 7.74902L14.5836 7.8492V7.8492L14.4834 7.74902ZM14.7559 7.09082H14.8975V7.09077L14.7559 7.09082ZM14.5996 6.57422L14.7174 6.49555L14.7174 6.49551L14.5996 6.57422ZM14.1816 6.23145L14.2359 6.10056L14.2359 6.10056L14.1816 6.23145ZM15.3125 2.42188V2.56354C16.1203 2.56354 16.895 2.88444 17.4662 3.45564L17.5664 3.35547L17.6666 3.2553C17.0422 2.63096 16.1954 2.28021 15.3125 2.28021V2.42188ZM17.5664 3.35547L17.4662 3.45564C18.0374 4.02685 18.3583 4.80157 18.3583 5.60938H18.5H18.6417C18.6417 4.72643 18.2909 3.87964 17.6666 3.2553L17.5664 3.35547ZM18.5 5.60938H18.3583V15.3848H18.5H18.6417V5.60938H18.5ZM18.5 15.3848L18.3583 15.3847C18.3582 16.1924 18.0373 16.9674 17.4662 17.5385L17.5664 17.6387L17.6666 17.7388C18.2908 17.1146 18.6416 16.2676 18.6417 15.3848L18.5 15.3848ZM17.5664 17.6387L17.4662 17.5385C16.895 18.1096 16.1202 18.4306 15.3125 18.4306V18.5723V18.7139C16.1954 18.7139 17.0423 18.3631 17.6666 17.7389L17.5664 17.6387ZM15.3125 18.5723V18.4306H4.6875V18.5723V18.7139H15.3125V18.5723ZM4.6875 18.5723V18.4306C3.8798 18.4306 3.10495 18.1096 2.53376 17.5385L2.43359 17.6387L2.33343 17.7389C2.95774 18.3631 3.80463 18.7139 4.6875 18.7139V18.5723ZM2.43359 17.6387L2.53377 17.5385C1.96266 16.9674 1.64177 16.1924 1.64167 15.3847L1.5 15.3848L1.35833 15.3848C1.35844 16.2676 1.70916 17.1146 2.33342 17.7388L2.43359 17.6387ZM1.5 15.3848H1.64167V5.60938H1.5H1.35833V15.3848H1.5ZM1.5 5.60938H1.64167C1.64167 4.80157 1.96256 4.02685 2.53377 3.45564L2.43359 3.35547L2.33342 3.2553C1.70908 3.87964 1.35833 4.72643 1.35833 5.60938H1.5ZM2.43359 3.35547L2.53377 3.45564C3.10497 2.88444 3.87969 2.56354 4.6875 2.56354V2.42188V2.28021C3.80455 2.28021 2.95776 2.63096 2.33342 3.2553L2.43359 3.35547ZM4.6875 2.42188V2.56354H15.3125V2.42188V2.28021H4.6875V2.42188ZM5.14746 8.70801L5.1399 8.56654C5.00446 8.57378 4.87438 8.62872 4.77553 8.72435L4.87402 8.82617L4.97252 8.92799C5.02093 8.88116 5.08587 8.85317 5.15502 8.84947L5.14746 8.70801ZM4.87402 8.82617L4.77767 8.72232L2.67903 10.6696L2.77539 10.7734L2.87175 10.8773L4.97038 8.93002L4.87402 8.82617ZM2.77539 10.7734H2.63372V15.3848H2.77539H2.91706V10.7734H2.77539ZM2.77539 15.3848L2.63372 15.3851C2.63504 15.929 2.85104 16.4506 3.23574 16.8355L3.33594 16.7354L3.43613 16.6352C3.10454 16.3035 2.91819 15.8537 2.91706 15.3844L2.77539 15.3848ZM3.33594 16.7354L3.23576 16.8355C3.62068 17.2204 4.14285 17.4373 4.68719 17.4385L4.6875 17.2969L4.68781 17.1552C4.21838 17.1542 3.76803 16.9671 3.43611 16.6352L3.33594 16.7354ZM4.6875 17.2969V17.4385H15.3125V17.2969V17.1552H4.6875V17.2969ZM15.3125 17.2969L15.3128 17.4385C15.8571 17.4373 16.3793 17.2204 16.7642 16.8355L16.6641 16.7354L16.5639 16.6352C16.232 16.9671 15.7816 17.1542 15.3122 17.1552L15.3125 17.2969ZM16.6641 16.7354L16.7643 16.8355C17.149 16.4506 17.365 15.929 17.3663 15.3851L17.2246 15.3848L17.0829 15.3844C17.0818 15.8537 16.8955 16.3035 16.5639 16.6352L16.6641 16.7354ZM17.2246 15.3848H17.3663V14.0029H17.2246H17.0829V15.3848H17.2246ZM17.2246 14.0029L17.3188 13.8971L14.4545 11.3473L14.3604 11.4531L14.2662 11.5589L17.1304 14.1087L17.2246 14.0029ZM14.3604 11.4531L14.4574 11.3499C14.3523 11.2511 14.2135 11.1962 14.0693 11.1962V11.3379V11.4796C14.1415 11.4796 14.2108 11.507 14.2633 11.5564L14.3604 11.4531ZM14.0693 11.3379L14.0693 11.1962C13.9252 11.1962 13.7864 11.2511 13.6813 11.3499L13.7783 11.4531L13.8753 11.5563C13.9278 11.507 13.9972 11.4796 14.0693 11.4796L14.0693 11.3379ZM13.7783 11.4531L13.6781 11.353L12.5092 12.5219L12.6094 12.6221L12.7095 12.7222L13.8785 11.5533L13.7783 11.4531ZM12.6094 12.6221L12.5102 12.5209C12.2369 12.7887 11.8745 12.947 11.4924 12.9649L11.499 13.1064L11.5057 13.248C11.9574 13.2267 12.3857 13.0397 12.7085 12.7233L12.6094 12.6221ZM11.499 13.1064L11.4924 12.9649C11.1104 12.9828 10.735 12.8594 10.4379 12.6185L10.3486 12.7285L10.2594 12.8386C10.6105 13.1232 11.0541 13.2691 11.5057 13.248L11.499 13.1064ZM10.3486 12.7285L10.4371 12.6179L5.52011 8.68623L5.43164 8.79688L5.34317 8.90752L10.2602 12.8392L10.3486 12.7285ZM5.43164 8.79688L5.51873 8.68514C5.41071 8.60095 5.27587 8.55932 5.13994 8.56654L5.14746 8.70801L5.15498 8.84947C5.22356 8.84583 5.29104 8.8669 5.34455 8.90861L5.43164 8.79688ZM4.6875 3.69727L4.68719 3.5556C4.14304 3.5568 3.62081 3.77259 3.23576 4.15764L3.33594 4.25781L3.43611 4.35799C3.7679 4.0262 4.2182 3.83997 4.68781 3.83893L4.6875 3.69727ZM3.33594 4.25781L3.23576 4.15764C2.85071 4.54269 2.63493 5.06491 2.63372 5.60906L2.77539 5.60938L2.91706 5.60969C2.9181 5.14007 3.10432 4.68978 3.43611 4.35799L3.33594 4.25781ZM2.77539 5.60938H2.63372V9.03516H2.77539H2.91706V5.60938H2.77539ZM2.77539 9.03516L2.87175 9.139L4.10417 7.99545L4.00781 7.8916L3.91145 7.78775L2.67903 8.93131L2.77539 9.03516ZM4.00781 7.8916L4.10434 7.99529C4.37772 7.74079 4.73312 7.59245 5.10604 7.57808L5.10059 7.43652L5.09513 7.29496C4.65408 7.31195 4.23412 7.48737 3.91128 7.78791L4.00781 7.8916ZM5.10059 7.43652L5.10601 7.57809C5.47904 7.56379 5.84516 7.68454 6.13728 7.91741L6.22559 7.80664L6.3139 7.69587C5.96891 7.42085 5.53632 7.27806 5.09516 7.29496L5.10059 7.43652ZM6.22559 7.80664L6.13697 7.91717L11.0462 11.8527L11.1348 11.7422L11.2234 11.6317L6.3142 7.69611L6.22559 7.80664ZM11.1348 11.7422L11.0461 11.8527C11.1547 11.9398 11.2915 11.9837 11.4302 11.9764L11.4229 11.835L11.4155 11.6935C11.3459 11.6971 11.2776 11.6751 11.2234 11.6317L11.1348 11.7422ZM11.4229 11.835L11.4303 11.9764C11.5695 11.9691 11.7013 11.9104 11.8 11.8125L11.7002 11.7119L11.6004 11.6113C11.5509 11.6605 11.4847 11.6898 11.4154 11.6935L11.4229 11.835ZM11.7002 11.7119L11.7993 11.8132L12.976 10.6618L12.877 10.5605L12.7779 10.4593L11.6011 11.6107L11.7002 11.7119ZM12.877 10.5605L12.977 10.6609C13.2586 10.3801 13.6373 10.2179 14.0351 10.207L14.0312 10.0654L14.0274 9.92382C13.5576 9.93665 13.1099 10.1282 12.7769 10.4602L12.877 10.5605ZM14.0312 10.0654L14.0351 10.207C14.4328 10.1962 14.82 10.3377 15.1165 10.6027L15.2109 10.4971L15.3053 10.3914C14.9548 10.0781 14.4972 9.91099 14.0274 9.92382L14.0312 10.0654ZM15.2109 10.4971L15.117 10.6031L17.1306 12.3882L17.2246 12.2822L17.3186 12.1762L15.3049 10.3911L15.2109 10.4971ZM17.2246 12.2822H17.3663V5.60938H17.2246H17.0829V12.2822H17.2246ZM17.2246 5.60938L17.3663 5.60906C17.3651 5.06491 17.1493 4.54269 16.7642 4.15764L16.6641 4.25781L16.5639 4.35799C16.8957 4.68978 17.0819 5.14007 17.0829 5.60969L17.2246 5.60938ZM16.6641 4.25781L16.7642 4.15764C16.3792 3.77259 15.857 3.5568 15.3128 3.5556L15.3125 3.69727L15.3122 3.83893C15.7818 3.83997 16.2321 4.0262 16.5639 4.35799L16.6641 4.25781ZM15.3125 3.69727V3.5556H4.6875V3.69727V3.83893H15.3125V3.69727ZM13.8252 5.04688L13.8249 5.18854C14.3292 5.18959 14.8128 5.39025 15.1694 5.74668L15.2695 5.64648L15.3697 5.54629C14.9601 5.13684 14.4046 4.90641 13.8255 4.90521L13.8252 5.04688ZM15.2695 5.64648L15.1694 5.74666C15.526 6.10328 15.7273 6.58696 15.7285 7.09114L15.8701 7.09082L16.0118 7.09051C16.0105 6.51125 15.7792 5.9558 15.3697 5.54631L15.2695 5.64648ZM15.8701 7.09082H15.7285C15.7285 7.46694 15.6166 7.83499 15.4076 8.14788L15.5254 8.22656L15.6432 8.30525C15.8832 7.9459 16.0118 7.52311 16.0118 7.09082H15.8701ZM15.5254 8.22656L15.4076 8.14786C15.1986 8.46067 14.9009 8.70458 14.5532 8.84861L14.6074 8.97949L14.6616 9.11037C15.061 8.94496 15.4029 8.66481 15.6432 8.30527L15.5254 8.22656ZM14.6074 8.97949L14.5532 8.8486C14.2056 8.99253 13.8234 9.03016 13.4544 8.95676L13.4268 9.0957L13.3991 9.23465C13.8231 9.31897 14.2623 9.27575 14.6616 9.11038L14.6074 8.97949ZM13.4268 9.0957L13.4544 8.95676C13.0852 8.88332 12.746 8.70277 12.48 8.43692L12.3799 8.53711L12.2797 8.6373C12.5855 8.94303 12.9754 9.15036 13.3991 9.23465L13.4268 9.0957ZM12.3799 8.53711L12.4801 8.43694C12.214 8.17092 12.0327 7.83157 11.9593 7.46258L11.8203 7.49023L11.6814 7.51789C11.7657 7.9418 11.9741 8.33163 12.2797 8.63728L12.3799 8.53711ZM11.8203 7.49023L11.9593 7.4626C11.8858 7.09349 11.9234 6.71042 12.0674 6.36281L11.9365 6.30859L11.8056 6.25438C11.6402 6.65384 11.597 7.09389 11.6814 7.51787L11.8203 7.49023ZM11.9365 6.30859L12.0674 6.36281C12.2113 6.01539 12.4554 5.71846 12.7682 5.50938L12.6895 5.3916L12.6107 5.27382C12.2515 5.51394 11.9711 5.85503 11.8056 6.25437L11.9365 6.30859ZM12.6895 5.3916L12.7682 5.50939C13.081 5.30037 13.449 5.1886 13.8252 5.18854L13.8252 5.04688L13.8252 4.90521C13.3929 4.90527 12.9701 5.03369 12.6107 5.27381L12.6895 5.3916ZM13.6436 6.17871L13.6159 6.03978C13.4085 6.08113 13.217 6.18226 13.0668 6.33244L13.167 6.43262L13.2672 6.53279C13.3771 6.42285 13.5179 6.34823 13.6713 6.31764L13.6436 6.17871ZM13.167 6.43262L13.0668 6.33244C12.9166 6.48263 12.8155 6.6741 12.7742 6.88148L12.9131 6.90918L13.052 6.93688C13.0826 6.7835 13.1572 6.64273 13.2672 6.53279L13.167 6.43262ZM12.9131 6.90918L12.7741 6.88154C12.7328 7.08943 12.7537 7.30539 12.8349 7.50148L12.9658 7.44727L13.0967 7.39305C13.037 7.249 13.0216 7.09002 13.052 6.93682L12.9131 6.90918ZM12.9658 7.44727L12.8349 7.50149C12.9161 7.69732 13.0535 7.86514 13.2299 7.98303L13.3086 7.86523L13.3873 7.74744C13.2576 7.66081 13.1565 7.53732 13.0967 7.39305L12.9658 7.44727ZM13.3086 7.86523L13.2299 7.98305C13.4063 8.10084 13.6135 8.16308 13.8251 8.16315L13.8252 8.02148L13.8252 7.87982C13.6691 7.87977 13.5167 7.83386 13.3873 7.74742L13.3086 7.86523ZM13.8252 8.02148V8.16315C14.1095 8.16315 14.3824 8.05036 14.5836 7.8492L14.4834 7.74902L14.3832 7.64885C14.2353 7.79678 14.0345 7.87982 13.8252 7.87982V8.02148ZM14.4834 7.74902L14.5836 7.8492C14.7847 7.64803 14.8975 7.37517 14.8975 7.09082H14.7559H14.6142C14.6142 7.30017 14.5312 7.50092 14.3832 7.64885L14.4834 7.74902ZM14.7559 7.09082L14.8975 7.09077C14.8975 6.87914 14.8352 6.67195 14.7174 6.49555L14.5996 6.57422L14.4818 6.65289C14.5682 6.78234 14.6141 6.93473 14.6142 7.09087L14.7559 7.09082ZM14.5996 6.57422L14.7174 6.49551C14.5995 6.31908 14.4317 6.18169 14.2359 6.10056L14.1816 6.23145L14.1274 6.36233C14.2717 6.42209 14.3952 6.52326 14.4818 6.65292L14.5996 6.57422ZM14.1816 6.23145L14.2359 6.10056C14.0398 6.01934 13.8238 5.99841 13.6159 6.03977L13.6436 6.17871L13.6712 6.31766C13.8244 6.28718 13.9834 6.30266 14.1274 6.36233L14.1816 6.23145Z" fill="white"/>
</svg>
