<svg width="56" height="56" viewBox="0 0 56 56" fill="none" xmlns="http://www.w3.org/2000/svg">
<rect width="56" height="56" rx="6" fill="#165DFF"/>
<path d="M42.9334 31.7336H13.0667V16.8003C13.0667 16.3052 13.2634 15.8304 13.6134 15.4803C13.9635 15.1303 14.4383 14.9336 14.9334 14.9336H41.0667C41.5618 14.9336 42.0366 15.1303 42.3866 15.4803C42.7367 15.8304 42.9334 16.3052 42.9334 16.8003V31.7336Z" fill="white"/>
<path d="M25.0021 19.3811L25.3978 19.7768C25.4673 19.8462 25.5223 19.9285 25.5599 20.0192C25.5975 20.1098 25.6168 20.207 25.6168 20.3051C25.6168 20.4032 25.5975 20.5004 25.5599 20.591C25.5223 20.6817 25.4673 20.764 25.3978 20.8334L23.0496 23.1798C23.0321 23.1971 23.0182 23.2178 23.0087 23.2405C22.9992 23.2633 22.9944 23.2877 22.9944 23.3123C22.9944 23.3369 22.9992 23.3613 23.0087 23.3841C23.0182 23.4068 23.0321 23.4275 23.0496 23.4448L25.3978 25.7912C25.4673 25.8606 25.5223 25.9429 25.5599 26.0336C25.5975 26.1242 25.6168 26.2214 25.6168 26.3195C25.6168 26.4176 25.5975 26.5148 25.5599 26.6054C25.5223 26.6961 25.4673 26.7784 25.3978 26.8478L25.0021 27.2435C24.9328 27.3129 24.8504 27.368 24.7598 27.4056C24.6691 27.4431 24.572 27.4625 24.4738 27.4625C24.3757 27.4625 24.2786 27.4431 24.1879 27.4056C24.0973 27.368 24.0149 27.3129 23.9456 27.2435L20.7405 24.0384C20.6451 23.9431 20.5695 23.8299 20.5178 23.7053C20.4662 23.5807 20.4396 23.4472 20.4396 23.3123C20.4396 23.1774 20.4662 23.0439 20.5178 22.9193C20.5695 22.7947 20.6451 22.6815 20.7405 22.5862L23.9456 19.3811C24.0149 19.3117 24.0973 19.2566 24.1879 19.219C24.2786 19.1814 24.3757 19.1621 24.4738 19.1621C24.572 19.1621 24.6691 19.1814 24.7598 19.219C24.8504 19.2566 24.9328 19.3117 25.0021 19.3811ZM32.0544 19.3811L35.2594 22.5862C35.3548 22.6815 35.4305 22.7947 35.4821 22.9193C35.5338 23.0439 35.5603 23.1774 35.5603 23.3123C35.5603 23.4472 35.5338 23.5807 35.4821 23.7053C35.4305 23.8299 35.3548 23.9431 35.2594 24.0384L32.0544 27.2435C31.985 27.3129 31.9027 27.368 31.812 27.4056C31.7214 27.4431 31.6242 27.4625 31.5261 27.4625C31.428 27.4625 31.3308 27.4431 31.2402 27.4056C31.1495 27.368 31.0672 27.3129 30.9978 27.2435L30.6021 26.8478C30.5327 26.7784 30.4776 26.6961 30.44 26.6054C30.4025 26.5148 30.3831 26.4176 30.3831 26.3195C30.3831 26.2214 30.4025 26.1242 30.44 26.0336C30.4776 25.9429 30.5327 25.8606 30.6021 25.7912L32.9504 23.4448C32.9679 23.4275 32.9818 23.4068 32.9912 23.3841C33.0007 23.3613 33.0056 23.3369 33.0056 23.3123C33.0056 23.2877 33.0007 23.2633 32.9912 23.2405C32.9818 23.2178 32.9679 23.1971 32.9504 23.1798L30.6021 20.8334C30.5327 20.764 30.4776 20.6817 30.44 20.591C30.4025 20.5004 30.3831 20.4032 30.3831 20.3051C30.3831 20.207 30.4025 20.1098 30.44 20.0192C30.4776 19.9285 30.5327 19.8462 30.6021 19.7768L30.9978 19.3811C31.0672 19.3117 31.1495 19.2566 31.2402 19.219C31.3308 19.1814 31.428 19.1621 31.5261 19.1621C31.6242 19.1621 31.7214 19.1814 31.812 19.219C31.9027 19.2566 31.985 19.3117 32.0544 19.3811Z" fill="#165DFF"/>
<path d="M41.0518 36.3996H14.9334C14.6882 36.3996 14.4455 36.3513 14.219 36.2575C13.9926 36.1637 13.7868 36.0262 13.6134 35.8529C13.4401 35.6795 13.3026 35.4738 13.2088 35.2473C13.115 35.0208 13.0667 34.7781 13.0667 34.5329V33.5996H42.9184V34.5329C42.9184 35.028 42.7218 35.5028 42.3717 35.8529C42.0216 36.2029 41.5468 36.3996 41.0518 36.3996ZM32.76 42.0145H23.2587C23.1965 42.0146 23.1353 41.9991 23.0806 41.9695C23.026 41.9399 22.9795 41.8971 22.9456 41.8449C22.9117 41.7928 22.8913 41.7331 22.8863 41.6711C22.8813 41.6091 22.8919 41.5469 22.9171 41.49L24.4664 37.9807C24.4961 37.9146 24.5444 37.8586 24.6054 37.8195C24.6664 37.7804 24.7375 37.7598 24.8099 37.7604H31.2312C31.3041 37.7602 31.3754 37.7812 31.4365 37.821C31.4975 37.8608 31.5456 37.9176 31.5747 37.9844L33.1016 41.4919C33.1264 41.5486 33.1367 41.6107 33.1315 41.6724C33.1263 41.7341 33.1059 41.7936 33.072 41.8455C33.0381 41.8973 32.9918 41.9399 32.9374 41.9694C32.8829 41.9989 32.822 42.0145 32.76 42.0145Z" fill="white" fill-opacity="0.7"/>
</svg>
